<mxfile host="app.diagrams.net" agent="Mozilla/5.0 (Windows NT 10.0; Win64; x64) AppleWebKit/537.36 (KHTML, like Gecko) Chrome/135.0.0.0 Safari/537.36" version="26.2.9">
  <diagram id="prtHgNgQTEPvFCAcTncT" name="Page-1">
    <mxGraphModel dx="1044" dy="570" grid="1" gridSize="10" guides="1" tooltips="1" connect="1" arrows="1" fold="1" page="1" pageScale="1" pageWidth="827" pageHeight="1169" math="0" shadow="0">
      <root>
        <mxCell id="0" />
        <mxCell id="1" parent="0" />
        <mxCell id="26t_qsLI35GO-gk1nptU-1" value="" style="verticalLabelPosition=bottom;verticalAlign=top;html=1;shape=mxgraph.flowchart.on-page_reference;" vertex="1" parent="1">
          <mxGeometry x="10" y="490" width="60" height="60" as="geometry" />
        </mxCell>
        <mxCell id="26t_qsLI35GO-gk1nptU-2" value="Valide?" style="strokeWidth=2;html=1;shape=mxgraph.flowchart.decision;whiteSpace=wrap;" vertex="1" parent="1">
          <mxGeometry x="520" y="470" width="100" height="100" as="geometry" />
        </mxCell>
        <mxCell id="26t_qsLI35GO-gk1nptU-3" value="Enoyer les&amp;nbsp;credentials (cuid,mot de passe)" style="rounded=0;whiteSpace=wrap;html=1;" vertex="1" parent="1">
          <mxGeometry x="140" y="490" width="130" height="60" as="geometry" />
        </mxCell>
        <mxCell id="26t_qsLI35GO-gk1nptU-5" value="" style="verticalLabelPosition=bottom;verticalAlign=top;html=1;shape=mxgraph.flowchart.on-page_reference;strokeColor=#6F0000;fillColor=#000000;fontColor=#ffffff;" vertex="1" parent="1">
          <mxGeometry x="540" y="660" width="60" height="60" as="geometry" />
        </mxCell>
        <mxCell id="26t_qsLI35GO-gk1nptU-11" value="" style="edgeStyle=orthogonalEdgeStyle;rounded=0;orthogonalLoop=1;jettySize=auto;html=1;" edge="1" parent="1" source="26t_qsLI35GO-gk1nptU-6" target="26t_qsLI35GO-gk1nptU-2">
          <mxGeometry relative="1" as="geometry" />
        </mxCell>
        <mxCell id="26t_qsLI35GO-gk1nptU-6" value="Verifier les&amp;nbsp;credentials" style="rounded=0;whiteSpace=wrap;html=1;" vertex="1" parent="1">
          <mxGeometry x="334" y="490" width="136" height="60" as="geometry" />
        </mxCell>
        <mxCell id="26t_qsLI35GO-gk1nptU-8" value="" style="endArrow=classic;html=1;rounded=0;entryX=0;entryY=0.5;entryDx=0;entryDy=0;" edge="1" parent="1" target="26t_qsLI35GO-gk1nptU-3">
          <mxGeometry width="50" height="50" relative="1" as="geometry">
            <mxPoint x="70" y="520" as="sourcePoint" />
            <mxPoint x="120" y="470" as="targetPoint" />
          </mxGeometry>
        </mxCell>
        <mxCell id="26t_qsLI35GO-gk1nptU-9" value="" style="endArrow=classic;html=1;rounded=0;entryX=0;entryY=0.5;entryDx=0;entryDy=0;exitX=1;exitY=0.5;exitDx=0;exitDy=0;" edge="1" parent="1" source="26t_qsLI35GO-gk1nptU-6">
          <mxGeometry width="50" height="50" relative="1" as="geometry">
            <mxPoint x="460" y="520" as="sourcePoint" />
            <mxPoint x="520" y="519.5" as="targetPoint" />
          </mxGeometry>
        </mxCell>
        <mxCell id="26t_qsLI35GO-gk1nptU-10" value="" style="endArrow=classic;html=1;rounded=0;entryX=0;entryY=0.5;entryDx=0;entryDy=0;exitX=1;exitY=0.5;exitDx=0;exitDy=0;" edge="1" parent="1" source="26t_qsLI35GO-gk1nptU-3">
          <mxGeometry width="50" height="50" relative="1" as="geometry">
            <mxPoint x="264" y="520" as="sourcePoint" />
            <mxPoint x="334" y="519.76" as="targetPoint" />
            <Array as="points">
              <mxPoint x="334" y="519.76" />
            </Array>
          </mxGeometry>
        </mxCell>
        <mxCell id="26t_qsLI35GO-gk1nptU-13" value="" style="endArrow=classic;html=1;rounded=0;entryX=0.5;entryY=1;entryDx=0;entryDy=0;" edge="1" parent="1" source="26t_qsLI35GO-gk1nptU-2" target="26t_qsLI35GO-gk1nptU-18">
          <mxGeometry width="50" height="50" relative="1" as="geometry">
            <mxPoint x="570" y="449.28932188134524" as="sourcePoint" />
            <mxPoint x="580" y="420" as="targetPoint" />
          </mxGeometry>
        </mxCell>
        <mxCell id="26t_qsLI35GO-gk1nptU-28" value="Oui" style="edgeLabel;html=1;align=center;verticalAlign=middle;resizable=0;points=[];" vertex="1" connectable="0" parent="26t_qsLI35GO-gk1nptU-13">
          <mxGeometry x="-0.0178" y="1" relative="1" as="geometry">
            <mxPoint as="offset" />
          </mxGeometry>
        </mxCell>
        <mxCell id="26t_qsLI35GO-gk1nptU-15" value="" style="endArrow=classic;html=1;rounded=0;entryX=0.5;entryY=0;entryDx=0;entryDy=0;entryPerimeter=0;" edge="1" parent="1" source="26t_qsLI35GO-gk1nptU-2" target="26t_qsLI35GO-gk1nptU-5">
          <mxGeometry width="50" height="50" relative="1" as="geometry">
            <mxPoint x="570" y="620" as="sourcePoint" />
            <mxPoint x="570" y="640.7106781186548" as="targetPoint" />
          </mxGeometry>
        </mxCell>
        <mxCell id="26t_qsLI35GO-gk1nptU-23" value="No" style="edgeLabel;html=1;align=center;verticalAlign=middle;resizable=0;points=[];" vertex="1" connectable="0" parent="26t_qsLI35GO-gk1nptU-15">
          <mxGeometry x="-0.2711" relative="1" as="geometry">
            <mxPoint as="offset" />
          </mxGeometry>
        </mxCell>
        <mxCell id="26t_qsLI35GO-gk1nptU-18" value="Envoyer le token" style="rounded=0;whiteSpace=wrap;html=1;" vertex="1" parent="1">
          <mxGeometry x="510" y="320" width="120" height="60" as="geometry" />
        </mxCell>
        <mxCell id="26t_qsLI35GO-gk1nptU-20" value="" style="verticalLabelPosition=bottom;verticalAlign=top;html=1;shape=mxgraph.flowchart.on-page_reference;strokeColor=#6F0000;fillColor=light-dark(#000025, #ffadcd);fontColor=#ffffff;" vertex="1" parent="1">
          <mxGeometry x="760" y="320" width="60" height="60" as="geometry" />
        </mxCell>
        <mxCell id="26t_qsLI35GO-gk1nptU-21" value="" style="endArrow=classic;html=1;rounded=0;entryX=0;entryY=0.5;entryDx=0;entryDy=0;entryPerimeter=0;" edge="1" parent="1" source="26t_qsLI35GO-gk1nptU-18" target="26t_qsLI35GO-gk1nptU-20">
          <mxGeometry width="50" height="50" relative="1" as="geometry">
            <mxPoint x="630" y="400" as="sourcePoint" />
            <mxPoint x="750" y="350" as="targetPoint" />
          </mxGeometry>
        </mxCell>
      </root>
    </mxGraphModel>
  </diagram>
</mxfile>
